<?xml version="1.0" encoding="utf-8"?>
<!-- Generator: Adobe Illustrator 22.0.0, SVG Export Plug-In . SVG Version: 6.00 Build 0)  -->
<svg version="1.1" id="Layer_1" xmlns="http://www.w3.org/2000/svg" xmlns:xlink="http://www.w3.org/1999/xlink" x="0px" y="0px"
	 viewBox="0 0 24 24" style="enable-background:new 0 0 24 24;" xml:space="preserve">
<style type="text/css">
	.st0{fill:#EE4323;}
</style>
<title>CodeIgniter icon</title>
<path class="st0" d="M8.5,24c-1.5-0.7-2.6-2.1-2.7-3.8c0.1-1.7,1-3.3,2.5-4.2C8,16.5,8,17.2,8.4,17.7c0.4,0.5,1,0.8,1.7,0.6
	c0.9-0.3,1.4-1.2,1.2-2.1c-0.1-0.3-0.3-0.6-0.5-0.8c-1-0.8-1.5-2.1-1.4-3.4c0.2-0.7,0.6-1.3,1.1-1.8c-0.4,1.1,0.7,2.1,1.5,2.7
	c1.4,0.8,2.7,1.7,3.9,2.7c1.4,1.1,2.1,2.8,2,4.5c-0.3,1.8-1.6,3.4-3.4,3.9c3.5-0.8,7.2-3.6,7.3-7.6c-0.1-3.2-2-6.1-4.9-7.4h-0.1
	c0.1,0.2,0.1,0.3,0.1,0.5c0-0.1,0-0.2,0-0.3c0,0.1,0,0.3,0,0.4c-0.2,0.9-1.1,1.5-2.1,1.2c-0.4-0.1-0.7-0.3-0.9-0.6
	c-1.2-1.5,0-3.2,0.2-4.9c0.1-2.1-0.8-4.1-2.6-5.4c0.9,1.4-0.3,3.3-1.1,4.4c-0.8,1.1-2,1.9-3,2.8c-1.1,1-2,2.1-2.9,3.2
	c-1.9,2.3-2.6,5.3-2,8.2C3.3,21.4,5.6,23.5,8.5,24L8.5,24L8.5,24z"/>
</svg>
