<?xml version="1.0" encoding="utf-8"?>
<!-- Generator: Adobe Illustrator 22.0.0, SVG Export Plug-In . SVG Version: 6.00 Build 0)  -->
<svg version="1.1" id="Layer_1" xmlns="http://www.w3.org/2000/svg" xmlns:xlink="http://www.w3.org/1999/xlink" x="0px" y="0px"
	 viewBox="0 0 24 24" style="enable-background:new 0 0 24 24;" xml:space="preserve">
<style type="text/css">
	.st0{fill:#FFFFFF;}
</style>
<path class="st0" d="M10,20c0,0.1,0,0.2,0,0.4c0,0.2-0.1,0.4-0.3,0.6c-0.4,0.6-1,1-1.7,1c-1.8,0-2.5-0.9-3.4-3.1C4,17.4,3.7,17,3,17
	v-2c1.8,0,2.5,0.9,3.4,3.1C7,19.6,7.3,20,8,20c0-0.3,0-0.5,0-0.9c0-0.8,0-1,0-1.2c0-0.5,0.1-0.8,0.4-1.1c-2.2-0.5-3.7-1.5-4.6-3.1
	l-0.3-0.8C3.1,12,3,10.9,3,9.8c0-1.4,0.4-2.6,1.2-3.6C4,5.2,4,4,4.5,2.7l0.2-0.4l0.4-0.1c0.1,0,0.1,0,0.2-0.1C6.2,2,7.4,2.3,9,3.3
	C10,3.1,11,3,12,3c0.9,0,1.8,0.1,2.7,0.3c1.6-1,2.8-1.3,3.6-1.2c0.1,0,0.2,0,0.2,0L19,2.2l0.2,0.4c0.5,1.2,0.5,2.3,0.4,3.2
	c0.9,1.1,1.4,2.5,1.4,4c0,1.3-0.1,2.2-0.4,3.1l-0.3,0.8c-0.7,1.6-2.3,2.6-4.7,3.1c0.3,0.4,0.4,0.7,0.4,1.2v1c0,0.5,0,0.5,0,1v0.1
	c0,0,0,0.6,0,1.9c-0.9,0-1.5-0.4-1.8-1.1C14,20.6,14,20.3,14,20v-2c0-0.1,0-0.1-0.2-0.3c-0.5-0.5-0.8-1-0.8-1.7v-0.9l0.9-0.1
	c2.7-0.3,4.1-1,4.6-2.1l0.2-0.6c0.2-0.6,0.3-1.4,0.3-2.5c0-1.2-0.4-2.1-1.2-2.9l-0.4-0.4l0.2-0.6c0.2-0.5,0.2-1.1,0-1.8h-0.1
	c-0.5,0.1-1.2,0.5-2,1l-0.4,0.2l-0.4-0.1C13.9,5,13,4.9,12.1,4.9c-1,0-2,0.1-2.9,0.4L8.7,5.4L8.4,5.2C7.5,4.6,6.8,4.3,6.3,4.1H6.2
	C6,4.9,6,5.5,6.2,6l0.2,0.6L6,7.1C5.4,7.8,5,8.7,5,9.8c0,1,0.1,1.8,0.3,2.4l0.3,0.6c0.7,1.2,2,2,4.5,2.2l0.9,0.1V16
	c0,0.7-0.2,1.2-0.8,1.7C10,17.9,10,17.9,10,18v0.2c0,0.1,0,0.2,0,0.9c0,0.3,0,0.5,0,0.8C10,19.9,10,19.9,10,20z"/>
</svg>
