<?xml version="1.0" encoding="utf-8"?>
<!-- Generator: Adobe Illustrator 22.0.0, SVG Export Plug-In . SVG Version: 6.00 Build 0)  -->
<svg version="1.1" id="Layer_1" xmlns="http://www.w3.org/2000/svg" xmlns:xlink="http://www.w3.org/1999/xlink" x="0px" y="0px"
	 viewBox="0 0 400 400.2" style="enable-background:new 0 0 400 400.2;" xml:space="preserve">
<style type="text/css">
	.st0{fill:#FFFFFF;}
</style>
<path class="st0" d="M322.7,0H77.3C34.7,0,0,34.7,0,77.3v81.7v163.7c0,42.7,34.7,77.3,77.3,77.3h245.3c42.7,0,77.3-34.7,77.3-77.3
	V158.9V77.2C399.8,34.7,365.2,0,322.7,0z M344.8,46.1h8.9v8.8v59.1l-67.7,0.2l-0.2-67.8L344.8,46.1z M142.8,158.9
	c12.8-17.7,33.6-29.4,57-29.4s44.2,11.6,57,29.4c8.4,11.6,13.3,25.8,13.3,41.1c0,38.7-31.6,70.5-70.5,70.5s-70.2-31.7-70.2-70.5
	C129.5,184.7,134.5,170.5,142.8,158.9z M360.9,322.7c0,21.1-17.2,38.3-38.3,38.3H77.3c-21.1,0-38.3-17.2-38.3-38.3V158.9h59.7
	c-5.2,12.7-8.1,26.6-8.1,41.1c0,60.3,49.1,109.4,109.4,109.4S309.4,260.3,309.4,200c0-14.5-3-28.4-8.1-41.1h59.7V322.7z"/>
</svg>
