<?xml version="1.0" encoding="utf-8"?>
<!-- Generator: Adobe Illustrator 22.0.0, SVG Export Plug-In . SVG Version: 6.00 Build 0)  -->
<svg version="1.1" id="Layer_1" xmlns="http://www.w3.org/2000/svg" xmlns:xlink="http://www.w3.org/1999/xlink" x="0px" y="0px"
	 viewBox="0 0 25 25" style="enable-background:new 0 0 25 25;" xml:space="preserve">
<style type="text/css">
	.st0{fill:#0868AB;}
</style>
<path class="st0" d="M1.6,6.1c-2.2,3.2-1.9,7.3-0.2,10.7c0,0.1,0.1,0.2,0.1,0.2c0,0,0.1,0.1,0.1,0.2c0,0,0,0.1,0,0.1
	c0,0.1,0.1,0.1,0.1,0.2c0.1,0.1,0.1,0.2,0.2,0.3c0,0,0.1,0.1,0.1,0.2C2,18,2.1,18.1,2.1,18.2c0,0,0.1,0.1,0.1,0.1
	c0.1,0.1,0.2,0.3,0.3,0.4l0,0c0,0,0,0,0,0.1c0.1,0.1,0.2,0.2,0.2,0.3l0.1,0.1c0.1,0.1,0.2,0.2,0.2,0.3l0.1,0.1
	c0.1,0.1,0.2,0.2,0.3,0.4l0,0l0,0c0.1,0.1,0.2,0.2,0.3,0.3l0.1,0.1c0.1,0.1,0.2,0.2,0.3,0.3c0,0,0.1,0.1,0.1,0.1
	c0.1,0.1,0.2,0.2,0.4,0.3c0,0,0,0,0,0c0,0,0,0,0.1,0.1c0.1,0.1,0.2,0.2,0.3,0.3l0.1,0.1c0.1,0.1,0.2,0.1,0.3,0.2l0.1,0.1
	C5.7,21.9,5.8,22,5.9,22c0,0,0.1,0.1,0.1,0.1l0,0c0.1,0.1,0.2,0.1,0.3,0.2c0,0,0.1,0.1,0.1,0.1c0.2,0.1,0.3,0.2,0.5,0.3L7,22.8
	c0.1,0.1,0.2,0.1,0.3,0.2C7.4,23,7.5,23,7.6,23c0.1,0,0.2,0.1,0.2,0.1l0.1,0l0.1,0c0.1,0.1,0.3,0.1,0.4,0.2l0.1,0
	c0.1,0.1,0.3,0.1,0.5,0.2l0.1,0c0.1,0.1,0.3,0.1,0.4,0.2l0.1,0C9.6,23.9,9.8,24,9.9,24l0.1,0c0.1,0,0.3,0.1,0.5,0.1l0,0
	c10.7,1.9,13.8-6.4,13.8-6.4c-2.6,3.4-7.2,4.3-11.6,3.3c-0.2,0-0.3-0.1-0.5-0.1l-0.1,0c-0.2,0-0.3-0.1-0.5-0.2l-0.1,0
	c-0.1,0-0.3-0.1-0.4-0.2l-0.1,0c-0.1-0.1-0.3-0.1-0.4-0.2l-0.1,0c-0.1-0.1-0.3-0.1-0.4-0.2L10,20.1c-0.1,0-0.2-0.1-0.3-0.1
	c-0.1,0-0.1-0.1-0.2-0.1c-0.1-0.1-0.2-0.1-0.4-0.2l-0.1-0.1c-0.2-0.1-0.3-0.2-0.5-0.3c0,0-0.1-0.1-0.1-0.1c-0.1-0.1-0.2-0.1-0.3-0.2
	c0,0-0.1,0-0.1-0.1c-0.1-0.1-0.2-0.1-0.3-0.2c0,0-0.1-0.1-0.1-0.1c-0.1-0.1-0.2-0.1-0.3-0.2l-0.1-0.1C7.1,18.2,7,18.1,6.9,18l0,0
	c-0.1-0.1-0.2-0.2-0.4-0.3l-0.1-0.1c-0.1-0.1-0.2-0.2-0.3-0.3L6,17.2c-0.1-0.1-0.2-0.2-0.3-0.3l0,0c-0.1-0.1-0.2-0.2-0.3-0.4
	l-0.1-0.1c-0.1-0.1-0.2-0.2-0.2-0.3C5,16,5,16,4.9,16c-0.1-0.1-0.2-0.2-0.3-0.4C2.2,12.3,1.4,7.7,3.3,4L1.6,6.1z"/>
<path class="st0" d="M8.4,3.5C7.7,4.6,7.2,6.1,7.2,7.6c0,1.3,0.3,2.6,1,3.7l0,0c0.2,0.5,0.5,0.8,0.7,1.2l0,0c0.2,0.4,0.5,0.7,0.8,1
	l0,0c0.1,0.1,0.2,0.3,0.4,0.4c0,0,0.1,0.1,0.1,0.1c0.1,0.1,0.2,0.2,0.4,0.3c0,0,0,0,0,0c0.1,0.1,0.3,0.2,0.4,0.4l0.1,0.1
	c0.1,0.1,0.3,0.2,0.4,0.3l0,0c0.1,0,0.1,0.1,0.2,0.1c0,0,0.1,0,0.1,0.1c0.1,0.1,0.2,0.1,0.3,0.2l0,0c0.1,0.1,0.2,0.1,0.3,0.2
	c0,0,0.1,0,0.1,0.1c0.1,0,0.1,0.1,0.2,0.1l0,0c0.1,0.1,0.3,0.1,0.4,0.2c0,0,0.1,0,0.1,0c0.1,0,0.2,0.1,0.4,0.1l0.1,0.1
	c0.1,0,0.2,0.1,0.3,0.1l0.1,0c0.1,0,0.3,0.1,0.4,0.1l0,0c8.2,1.4,10.1-5,10.1-5c-1.7,2.5-5,3.6-8.6,2.7c-0.2,0-0.3-0.1-0.5-0.1
	c0,0-0.1,0-0.1,0c-0.1,0-0.2-0.1-0.3-0.1l-0.1-0.1c-0.1,0-0.2-0.1-0.4-0.1c0,0-0.1,0-0.1,0c-0.1-0.1-0.3-0.1-0.4-0.2
	c-0.1,0-0.1-0.1-0.2-0.1L14,13.4c-0.1-0.1-0.2-0.1-0.3-0.2c0,0,0,0-0.1,0c-0.1-0.1-0.2-0.1-0.3-0.2c0,0-0.1,0-0.1-0.1
	c-0.1,0-0.1-0.1-0.2-0.1c-0.2-0.1-0.3-0.2-0.4-0.3l-0.1-0.1C11,11.2,9.8,9.5,9.2,7.7l0-0.1C8.9,6.9,8.8,6.1,8.8,5.3
	c0-1.3,0.4-2.6,1-3.7l0,0L8.4,3.5z"/>
<path class="st0" d="M14.2,1.5c-0.5,0.7-0.8,1.7-0.8,2.7c0,0.7,0.2,1.4,0.4,2l0,0c0.7,1.6,2.1,2.9,3.7,3.5l0,0c0.1,0,0.1,0,0.2,0.1
	l0.1,0c0.1,0,0.2,0.1,0.3,0.1l0,0c4.5,0.9,5.8-2.3,6.1-2.8c-1.1,1.6-2.9,1.9-5.1,1.4c-0.2,0-0.4-0.1-0.5-0.2
	c-0.3-0.1-0.5-0.2-0.7-0.3l0,0c-0.4-0.2-0.8-0.4-1.1-0.7l0,0c-2-1.5-3.2-4.4-1.9-6.7L14.2,1.5z"/>
</svg>
