<?xml version="1.0" encoding="utf-8"?>
<!-- Generator: Adobe Illustrator 23.0.5, SVG Export Plug-In . SVG Version: 6.00 Build 0)  -->
<svg version="1.1" id="Layer_1" xmlns="http://www.w3.org/2000/svg" xmlns:xlink="http://www.w3.org/1999/xlink" x="0px" y="0px"
	 viewBox="0 0 2690.3 1010.1" style="enable-background:new 0 0 2690.3 1010.1;" xml:space="preserve">
<style type="text/css">
	.st0{fill:#56B887;}
	.st1{fill:#56B887;stroke:#231F20;stroke-width:3;stroke-miterlimit:10;}
	.st2{fill:#FFFFFF;}
</style>
<g>
	<g>
		<g>
			<path class="st0" d="M859.8,298.6c10,37.9,134.1,431.6,134.1,431.6c12.3,52.3,35.1,59.3,55.5,60.4h89.4l46.9-0.2l-159.4-510.7
				c-12.3-52.3-35.1-59.3-55.5-60.4c0,0-35.1,0-89.4,0c-54.3,0-61.3,52.7-61.3,52.7S847.9,253.7,859.8,298.6z"/>
			<path class="st0" d="M513.1,298.6c10,37.9,134.1,431.6,134.1,431.6c12.3,52.3,35.1,59.3,55.5,60.4h89.4l25.7-68.3L679.7,279.8
				c-12.3-52.3-35.1-59.3-55.5-60.4c0,0-35.1,0-89.4,0c-18.2,0-29.4,5.9-38.5,13.7c-18.1,15.6,27.2,44.8,27.2,44.8
				S501.2,253.7,513.1,298.6z"/>
			<g>
				<path class="st0" d="M983.6,298.6c-10,37.9-134.1,431.6-134.1,431.6c-12.3,52.3-35.1,59.3-55.5,60.4c0,0-35.1,0-89.4,0
					c-48.2,0-54.7-52.7-54.7-52.7s21.2,18.4,33.1-26.5c10-37.9,134.1-431.6,134.1-431.6c12.3-52.3,35-59.3,55.5-60.4
					c0,0,35.1,0,89.4,0c54.3,0,61.3,52.7,61.3,52.7S995.4,253.7,983.6,298.6z"/>
			</g>
			<path class="st1" d="M404.2,559.6c-1.3-1-2.7-1.9-4.1-2.8C401.4,557.8,402.7,558.7,404.2,559.6z"/>
			<path class="st1" d="M404.2,559.6c-1.3-1-2.7-1.9-4.1-2.8C401.4,557.8,402.7,558.7,404.2,559.6z"/>
			<path class="st1" d="M404.2,559.6c-1.3-1-2.7-1.9-4.1-2.8C401.4,557.8,402.7,558.7,404.2,559.6z"/>
			<path class="st0" d="M319.1,569.2c-15.8,22-46.4,27-68.4,11.3c-22-15.8-27-46.4-11.3-68.4c15.8-22,46.4-27,68.4-11.3
				C329.8,516.6,334.8,547.2,319.1,569.2z"/>
			<path class="st0" d="M296.9,695.4c-10.2,14.2-29.9,17.4-44.1,7.3c-14.2-10.2-17.4-29.9-7.3-44.1c10.2-14.2,29.9-17.4,44.1-7.3
				C303.9,661.5,307.1,681.2,296.9,695.4z"/>
			<path class="st0" d="M456.8,306.1c-9.8,13.7-28.9,16.8-42.6,7c-13.7-9.8-16.8-28.9-7-42.6c9.8-13.7,28.9-16.8,42.6-7
				C463.4,273.3,466.6,292.4,456.8,306.1z"/>
			<path class="st0" d="M463.6,575c-13.3,18.6-39.2,22.8-57.7,9.5c-18.6-13.3-22.8-39.2-9.5-57.7c13.3-18.6,39.2-22.8,57.7-9.5
				C472.7,530.6,477,556.4,463.6,575z"/>
			<path class="st0" d="M617,219.4c-54.3,0-89.4,0-89.4,0c-8.7,0.5-17.8,2-26.3,7.6c-2.3,1.5-7,5.6-7,5.6c-14.4,30-6.1,48.9,3,56.3
				c19.2,15.4,24.6,42.2,10.3,62.2c-13.1,18.3-34.9,22.1-57.3,14.6c-22.4-7.4-47.9,0.1-62.4,20.3c-17.8,24.9-12.1,59.4,12.7,77.3
				c4.7,3.3,9.7,5.9,14.9,7.6c4.5,1.5,9.1,2.4,13.7,2.7c1.7,0,3.3,0,5,0.1c0,0,0.1,0,0.1,0c14.2,0.8,28.4,5.4,40.9,14.4
				c34.7,24.9,42.7,73.2,17.8,107.9c-24.9,34.7-73.2,42.7-107.9,17.8c-4.8-3.5-9.2-7.4-13-11.7l-59.4,188.5l46.9,0.2h89.4
				c20.5-1.1,43.3-8.2,55.5-60.4c0,0,4.2-13.2,11-34.9c0.3-0.9,0.7-1.7,1-2.6C558.6,565.8,615,393.4,615,393.4
				c8.7-21,11.1-36.5,9.8-48.4c7.1-23.3,12.1-40,13.8-46.4c11.8-44.9,39.6-26.5,39.6-26.5S671.3,219.4,617,219.4z M456.2,705
				c-8.4,11.7-24.7,14.4-36.5,6c-11.7-8.4-14.4-24.7-6-36.5c8.4-11.7,24.7-14.4,36.5-6C461.9,677,464.6,693.3,456.2,705z"/>
		</g>
	</g>
	<g>
		<g>
			<path class="st2" d="M1267.4,586.7l-9.1-29.8h-45.7l-9.1,29.8h-28.6l44.2-125.8h32.5l44.4,125.8H1267.4z M1252,534.6l-9.1-29.1
				c-0.6-1.9-1.3-4.4-2.3-7.5c-0.9-3.1-1.9-6.2-2.8-9.3s-1.7-5.9-2.3-8.3c-0.6,2.3-1.4,5.2-2.4,8.7c-1,3.5-2,6.7-2.9,9.8
				c-0.9,3.1-1.6,5.3-2,6.6l-9,29.1H1252z"/>
			<path class="st2" d="M1348.3,461.4c11.4,0,20.8,1.4,28.2,4.1c7.4,2.7,12.9,6.9,16.5,12.4c3.6,5.5,5.4,12.5,5.4,21
				c0,5.7-1.1,10.7-3.3,15c-2.2,4.3-5,7.9-8.6,10.9c-3.5,3-7.4,5.4-11.5,7.3l36.9,54.6h-29.5l-29.9-48.1h-14.1v48.1h-26.6V461.4
				H1348.3z M1346.4,483.2h-8.1V517h8.6c8.8,0,15.1-1.5,18.9-4.4c3.8-2.9,5.7-7.3,5.7-13c0-5.9-2-10.2-6.1-12.7
				C1361.3,484.4,1355,483.2,1346.4,483.2z"/>
			<path class="st2" d="M1476.1,586.7h-26.6V483.5h-34v-22.1h94.6v22.1h-34V586.7z"/>
		</g>
	</g>
	<g>
		<g>
			<path class="st2" d="M2331.8,671.5c-0.5-3.9-1.8-7.7-3.3-11.3c-7.5-17.4-21.3-28.1-38.3-35.1c-22.2-9.2-45.6-12-69.2-11.9
				c-32.7,0.1-322.3,3.8-355.1,5c-17.3,0.6-34.6,1.4-51.8,0.6c6-6.1,11.7-12.2,16.7-18.1c11-12.9-22.9-14.7-31.4-7.4
				c-15,13-28.8,27.3-43.8,40.4c-10.7,9.4-21.8,18.7-33.4,26.9c-1.2,0.9-3.5,2.1-5.8,3.5c0.2-1.9,0.5-3.8,0.8-5.8
				c2.8-29.2,2.3-52.1-29.9-54.7c-7.9-0.6-16.8,0.5-25.4,3.2c1.5-4.9,2.9-9.7,4.5-14.6c0.3-1,0.7-2.1,1-3.1
				c31.2-35.5,59.6-74.2,84.3-112.8c17-26.6,55.7-83,25.8-99.3c-80.3-43.8-133.1,165-146.1,205.4c-21,65.3-41.3,130.8-61.1,196.1
				c-4,13.1,30.9,13.2,36.4,0c17.6-42.7,30.1-86.1,42.6-129.3c2.5-1.5,4.4-3.3,5.5-5.6c4.9-11.7,13-18.1,24.5-19.2
				c1.7,3.8,2.4,8,2,12.5c0.7,10.4-2.4,21.6-2.9,32.2c-0.4,8.4,0.8,14.8,7.6,18.9c13.2,7.9,34.1,1.6,50.5-7.7
				c20.4-11.6,43.1-29,63.1-47.4c26.8,3.5,53.7,1.7,80.6,0.5c33.5-1.6,323.9-6.2,357.5-3.9c18,1.3,35.8,3.4,52.6,10.3
				c14.6,6,25.7,15.3,29.5,31.4c0.4,1.8,1.5,4,3,4.8c1.9,1.1,4.8,1.9,6.6,1.1C2330.8,676.6,2332.1,673.4,2331.8,671.5z
				 M1733.8,417.8c4.2-7,12.7-15,16.5-21.9c0.1,0.5,0.2,0.8,0.3,0.8c-2.7,7.5-2.3,15.7-5.4,23.8c-5.1,12.9-12.2,25.8-19.7,38.2
				c-10,16.8-21,33.4-32.5,49.9C1703.7,477.6,1716.5,446.7,1733.8,417.8z"/>
			<path class="st2" d="M1625.7,604.9L1625.7,604.9c-12.9,6.5-28.1,7.4-40.3,7.3c-4,0-8.1-0.1-12.1-0.6c3.4-11.7,4.1-22.7,0.1-31.2
				c-6.5-14.1-34.5-16.6-51.2-2.2c-20.6,17.7-7.1,36.6,6,43.8c0.8,0.4,1.7,0.8,2.6,1.3c-0.4,1.2-0.8,2.1-1,2.6
				c-6.8,15.7-18.8,32.7-33.6,44.4c-56.6,45.2-41.2-44.9-20.8-51.9c23.9-8.1,1.1-19.4-12.4-15.5c-15.4,4.5-26.7,15.9-33.8,29.2
				c-6.9,4.8-14.9,6.9-23.1,8.3c-26.2,4.5-52.5,3.1-78.8,2.2c-32.7-1.1-111.7-4.8-144.4-5c-23.6-0.1-47.1,2.7-69.2,11.9
				c-17,7.1-30.8,17.7-38.3,35.1c-1.5,3.6-2.8,7.5-3.3,11.3c-0.3,1.8,1,5.1,2.4,5.6c1.8,0.7,4.7-0.1,6.6-1.2c1.5-0.8,2.6-3,3-4.8
				c3.9-16.1,14.9-25.5,29.5-31.4c16.9-6.9,43.4-9,61.4-10.3c33.6-2.4,104.5,2.3,138.1,3.9c27.9,1.3,56,3.2,83.8-0.8
				c8.5-1.2,17.1-3.2,25.1-6.2c-1.2,4.7-1.8,9.4-2,13.9c-1.1,26.6,19.3,39.5,46,38.6c26.8-0.9,53.8-15.1,75-37.4
				c8.5-8.9,17.1-21,23.7-33.6c27.9,3.1,61.3-1.2,86-15.9C1667.1,606.7,1635.1,600.1,1625.7,604.9z"/>
		</g>
		<g>
			<g>
				<path class="st2" d="M1914.8,525.9c-0.6-14.3-1.1-31.4-1-48.7h-0.5c-3.8,15.1-8.7,32-13.2,45.9l-14.5,46.1h-20.8l-12.7-45.7
					c-3.8-13.9-7.7-30.7-10.7-46.3h-0.4c-0.6,16.1-1.2,34.4-2,49.1l-2.2,44.9h-24.8l7.6-118.3h35.7l11.5,39.5
					c3.7,13.6,7.4,28.4,10,42.3h0.6c3.2-13.7,7.2-29.3,11.3-42.5l12.6-39.4h35l6.4,118.3h-26L1914.8,525.9z"/>
				<path class="st2" d="M2043.3,543.6c0,11.2,0.3,20.4,0.7,27.5h-23.2l-1.2-12.1h-0.6c-3.4,5.3-11.4,14.1-26.8,14.1
					c-17.5,0-30.2-10.9-30.2-37.3v-50.5h26.8v46.2c0,12.6,4,20.1,13.5,20.1c7.3,0,11.6-5,13.3-9.4c0.7-1.6,1-3.5,1-5.7v-51.2h26.8
					V543.6z"/>
				<path class="st2" d="M2047.1,587c6.9-0.6,12.4-2.2,15.7-5.7c3.9-4,5.3-10.9,5.3-28v-68.1h26.8v74.6c0,18.7-4.1,30.1-12.1,37.6
					c-7.9,7.2-20.4,10.5-33.2,10.5L2047.1,587z M2095.6,461.3c0,7.4-5.4,13.3-14.4,13.3c-8.5,0-13.9-5.9-13.9-13.3
					c0-7.6,5.6-13.4,14.2-13.4C2090.1,447.9,2095.5,453.7,2095.6,461.3z"/>
				<path class="st2" d="M2145.6,460.7v24.5h19.2v19.7h-19.2V536c0,10.4,2.6,15.1,10.5,15.1c3.4,0,6.1-0.4,7.9-0.8l0.2,20.3
					c-3.4,1.2-9.8,2.3-17.3,2.3c-8.6,0-15.8-3-20.1-7.5c-5-5.1-7.4-13.3-7.4-25.5v-35.1H2108v-19.7h11.4v-18.5L2145.6,460.7z"/>
				<path class="st2" d="M2229.1,571.1l-1.6-8.5h-0.6c-5.6,6.8-14.4,10.5-24.5,10.5c-17.5,0-27.8-12.6-27.8-26.3
					c0-22.4,20-33,50.4-33v-1.1c0-4.6-2.5-11.1-15.7-11.1c-8.8,0-18,3-23.7,6.4l-4.9-17.1c6-3.4,17.7-7.7,33.4-7.7
					c28.6,0,37.7,16.9,37.7,37.1v30c0,8.2,0.4,16,1.4,20.8H2229.1z M2225.9,530.5c-14.1-0.1-24.9,3.3-24.9,13.5
					c0,6.9,4.5,10.3,10.6,10.3c6.5,0,12.1-4.4,13.8-9.9c0.4-1.4,0.5-3,0.5-4.6V530.5z"/>
				<path class="st2" d="M2272.2,571.1c0.4-5.7,0.7-15.9,0.7-25.7v-99h26.7v49h0.4c5.1-7.4,14-12.2,25.9-12.2
					c20.6,0,35.7,17.1,35.5,43.4c0,31-19.6,46.4-39.3,46.4c-10,0-19.7-3.7-25.7-13.9h-0.4l-1.1,12H2272.2z M2299.6,534.6
					c0,1.7,0.2,3.3,0.5,4.7c1.8,7.1,7.9,12.7,15.7,12.7c11.3,0,18.4-8.8,18.4-24.3c0-13.4-6-23.9-18.4-23.9c-7.4,0-14,5.4-15.7,13.2
					c-0.3,1.5-0.5,3.2-0.5,4.9V534.6z"/>
				<path class="st2" d="M2426.8,571.1l-1.6-8.5h-0.6c-5.6,6.8-14.4,10.5-24.5,10.5c-17.5,0-27.8-12.6-27.8-26.3
					c0-22.4,20-33,50.4-33v-1.1c0-4.6-2.5-11.1-15.7-11.1c-8.8,0-18,3-23.7,6.4l-4.9-17.1c6-3.4,17.7-7.7,33.4-7.7
					c28.6,0,37.7,16.9,37.7,37.1v30c0,8.2,0.4,16,1.4,20.8H2426.8z M2423.6,530.5c-14.1-0.1-24.9,3.3-24.9,13.5
					c0,6.9,4.5,10.3,10.6,10.3c6.5,0,12.1-4.4,13.8-9.9c0.4-1.4,0.5-3,0.5-4.6V530.5z"/>
			</g>
		</g>
	</g>
</g>
</svg>
