<svg width="184" height="192" viewBox="0 0 184 192" fill="none" xmlns="http://www.w3.org/2000/svg">
<path d="M141.3 185.023C141.3 185.023 158.5 209.223 165.8 166.423C173.1 123.623 183.1 16.2228 133.5 16.2228C123.6 16.2228 113 28.4228 105.3 37.9228C88.2 58.9228 81.5 86.8228 77.8 86.8228C74.1 86.8228 37.8 13.2228 37.8 13.2228C37.8 13.2228 24.8 -17.3772 14 14.5228C10.2 25.6228 7.8 40.9228 5.8 58.5229C3.3 80.9228 1 103.823 1 109.223C1 117.723 20.4 126.723 20.4 84.1228C20.4 33.8228 24.7 29.0228 27.7 29.0228C32.5 29.0228 65.7 101.323 65.7 101.323C65.7 101.323 70.5 111.623 78.7 111.623C86.9 111.623 93.4 95.8228 93.4 95.8228C93.4 95.8228 127.5 9.02284 143.6 40.6228C148.3 49.9228 154.4 66.0229 158 86.5229C167 137.923 167.7 206.423 141.3 185.023Z" fill="#56B887"/>
<path d="M180.5 26.5228C180.5 26.5228 194 -2.27717 144 6.52283C94 15.3228 38.9 55.3228 23.2 84.1228C23.2 84.1228 18.9 91.4228 17.8 93.2228C16.7 95.0228 4.19998 114.923 4.19998 114.923C4.19998 114.923 1.09998 112.523 1.09998 109.923C1.09998 101.523 0.899979 90.2228 6.39998 79.0228C11.8 68.1228 31.4 43.7228 67.9 25.0228C89.8 13.7228 133.4 0.622832 153.8 1.12283C174.6 1.72283 177.6 5.22283 181.1 9.62283C186.8 17.0228 180.5 26.5228 180.5 26.5228Z" fill="white"/>
<path d="M4.90625 172.242C4.14583 172.242 3.46094 172.107 2.85156 171.836C2.2474 171.56 1.76823 171.154 1.41406 170.617C1.0651 170.081 0.890625 169.419 0.890625 168.633C0.890625 167.956 1.01563 167.396 1.26563 166.953C1.51563 166.51 1.85677 166.156 2.28906 165.891C2.72135 165.625 3.20833 165.424 3.75 165.289C4.29688 165.148 4.86198 165.047 5.44531 164.984C6.14844 164.911 6.71875 164.846 7.15625 164.789C7.59375 164.727 7.91146 164.633 8.10938 164.508C8.3125 164.378 8.41406 164.177 8.41406 163.906V163.859C8.41406 163.271 8.23958 162.815 7.89063 162.492C7.54167 162.169 7.03906 162.008 6.38281 162.008C5.6901 162.008 5.14063 162.159 4.73438 162.461C4.33333 162.763 4.0625 163.12 3.92188 163.531L1.28125 163.156C1.48958 162.427 1.83333 161.818 2.3125 161.328C2.79167 160.833 3.3776 160.464 4.07031 160.219C4.76302 159.969 5.52865 159.844 6.36719 159.844C6.94531 159.844 7.52083 159.911 8.09375 160.047C8.66667 160.182 9.1901 160.406 9.66406 160.719C10.138 161.026 10.5182 161.445 10.8047 161.977C11.0964 162.508 11.2422 163.172 11.2422 163.969V172H8.52344V170.352H8.42969C8.25781 170.685 8.01563 170.997 7.70313 171.289C7.39583 171.576 7.00781 171.807 6.53906 171.984C6.07552 172.156 5.53125 172.242 4.90625 172.242ZM5.64063 170.164C6.20833 170.164 6.70052 170.052 7.11719 169.828C7.53385 169.599 7.85417 169.297 8.07812 168.922C8.30729 168.547 8.42188 168.138 8.42188 167.695V166.281C8.33333 166.354 8.18229 166.422 7.96875 166.484C7.76042 166.547 7.52604 166.602 7.26563 166.648C7.00521 166.695 6.7474 166.737 6.49219 166.773C6.23698 166.81 6.01563 166.841 5.82813 166.867C5.40625 166.924 5.02865 167.018 4.69531 167.148C4.36198 167.279 4.09896 167.461 3.90625 167.695C3.71354 167.924 3.61719 168.221 3.61719 168.586C3.61719 169.107 3.80729 169.5 4.1875 169.766C4.56771 170.031 5.05208 170.164 5.64063 170.164ZM14.0859 172V160H16.8281V162H16.9531C17.1719 161.307 17.5469 160.773 18.0781 160.398C18.6146 160.018 19.2266 159.828 19.9141 159.828C20.0703 159.828 20.2448 159.836 20.4375 159.852C20.6354 159.862 20.7995 159.88 20.9297 159.906V162.508C20.8099 162.466 20.6198 162.43 20.3594 162.398C20.1042 162.362 19.8568 162.344 19.6172 162.344C19.1016 162.344 18.638 162.456 18.2266 162.68C17.8203 162.898 17.5 163.203 17.2656 163.594C17.0313 163.984 16.9141 164.435 16.9141 164.945V172H14.0859ZM29.4453 160V162.187H22.5469V160H29.4453ZM24.25 157.125H27.0781V168.391C27.0781 168.771 27.1354 169.063 27.25 169.266C27.3698 169.464 27.526 169.599 27.7188 169.672C27.9115 169.745 28.125 169.781 28.3594 169.781C28.5365 169.781 28.6979 169.768 28.8438 169.742C28.9948 169.716 29.1094 169.693 29.1875 169.672L29.6641 171.883C29.513 171.935 29.2969 171.992 29.0156 172.055C28.7396 172.117 28.401 172.154 28 172.164C27.2917 172.185 26.6536 172.078 26.0859 171.844C25.5182 171.604 25.0677 171.234 24.7344 170.734C24.4063 170.234 24.2448 169.609 24.25 168.859V157.125ZM36.916 172.234C35.7441 172.234 34.7285 171.977 33.8691 171.461C33.0098 170.945 32.3431 170.224 31.8691 169.297C31.4004 168.37 31.166 167.286 31.166 166.047C31.166 164.807 31.4004 163.721 31.8691 162.789C32.3431 161.857 33.0098 161.133 33.8691 160.617C34.7285 160.102 35.7441 159.844 36.916 159.844C38.0879 159.844 39.1035 160.102 39.9629 160.617C40.8223 161.133 41.4863 161.857 41.9551 162.789C42.429 163.721 42.666 164.807 42.666 166.047C42.666 167.286 42.429 168.37 41.9551 169.297C41.4863 170.224 40.8223 170.945 39.9629 171.461C39.1035 171.977 38.0879 172.234 36.916 172.234ZM36.9316 169.969C37.5671 169.969 38.0983 169.794 38.5254 169.445C38.9525 169.091 39.2702 168.617 39.4785 168.023C39.6921 167.43 39.7988 166.768 39.7988 166.039C39.7988 165.305 39.6921 164.641 39.4785 164.047C39.2702 163.448 38.9525 162.971 38.5254 162.617C38.0983 162.263 37.5671 162.086 36.9316 162.086C36.2806 162.086 35.7389 162.263 35.3066 162.617C34.8796 162.971 34.5592 163.448 34.3457 164.047C34.1374 164.641 34.0332 165.305 34.0332 166.039C34.0332 166.768 34.1374 167.43 34.3457 168.023C34.5592 168.617 34.8796 169.091 35.3066 169.445C35.7389 169.794 36.2806 169.969 36.9316 169.969ZM51.1445 160V162.187H44.0508V160H51.1445ZM45.8242 172V158.867C45.8242 158.06 45.9909 157.388 46.3242 156.852C46.6628 156.315 47.1159 155.914 47.6836 155.648C48.2513 155.383 48.8815 155.25 49.5742 155.25C50.0638 155.25 50.4987 155.289 50.8789 155.367C51.2591 155.445 51.5404 155.516 51.7227 155.578L51.1602 157.766C51.0404 157.729 50.8893 157.693 50.707 157.656C50.5247 157.615 50.3216 157.594 50.0977 157.594C49.5716 157.594 49.1992 157.721 48.9805 157.977C48.7669 158.227 48.6602 158.586 48.6602 159.055V172H45.8242Z" fill="#56B887"/>
<path d="M58.8164 172V160H61.5195V162.039H61.6602C61.9102 161.352 62.3242 160.815 62.9023 160.43C63.4805 160.039 64.1706 159.844 64.9727 159.844C65.7852 159.844 66.4701 160.042 67.0273 160.437C67.5898 160.828 67.9857 161.362 68.2148 162.039H68.3398C68.6055 161.372 69.0534 160.841 69.6836 160.445C70.319 160.044 71.0716 159.844 71.9414 159.844C73.0456 159.844 73.9466 160.193 74.6445 160.891C75.3424 161.589 75.6914 162.607 75.6914 163.945V172H72.8555V164.383C72.8555 163.638 72.6576 163.094 72.2617 162.75C71.8659 162.401 71.3815 162.227 70.8086 162.227C70.1263 162.227 69.5924 162.44 69.207 162.867C68.8268 163.289 68.6367 163.839 68.6367 164.516V172H65.8633V164.266C65.8633 163.646 65.6758 163.151 65.3008 162.781C64.931 162.411 64.4466 162.227 63.8477 162.227C63.4414 162.227 63.0716 162.331 62.7383 162.539C62.4049 162.742 62.1393 163.031 61.9414 163.406C61.7435 163.776 61.6445 164.208 61.6445 164.703V172H58.8164ZM86.209 166.953V160H89.0371V172H86.2949V169.867H86.1699C85.8991 170.539 85.4538 171.089 84.834 171.516C84.2194 171.943 83.4616 172.156 82.5605 172.156C81.7741 172.156 81.0788 171.982 80.4746 171.633C79.8757 171.279 79.4069 170.766 79.0684 170.094C78.7298 169.417 78.5605 168.599 78.5605 167.641V160H81.3887V167.203C81.3887 167.964 81.597 168.568 82.0137 169.016C82.4303 169.464 82.9772 169.687 83.6543 169.687C84.071 169.687 84.4746 169.586 84.8652 169.383C85.2559 169.18 85.5762 168.878 85.8262 168.477C86.0814 168.07 86.209 167.562 86.209 166.953ZM91.9453 160H94.7734V172.688C94.7734 173.552 94.6094 174.266 94.2813 174.828C93.9531 175.391 93.4792 175.81 92.8594 176.086C92.2396 176.362 91.487 176.5 90.6016 176.5C90.4974 176.5 90.401 176.497 90.3125 176.492C90.224 176.492 90.1276 176.49 90.0234 176.484V174.18C90.1016 174.185 90.1719 174.188 90.2344 174.188C90.2969 174.193 90.362 174.195 90.4297 174.195C90.9714 174.195 91.3594 174.063 91.5938 173.797C91.8281 173.536 91.9453 173.154 91.9453 172.648V160ZM93.3516 158.297C92.8984 158.297 92.5104 158.148 92.1875 157.852C91.8698 157.549 91.7109 157.187 91.7109 156.766C91.7109 156.339 91.8698 155.977 92.1875 155.68C92.5104 155.378 92.8984 155.227 93.3516 155.227C93.7995 155.227 94.1823 155.378 94.5 155.68C94.8229 155.977 94.9844 156.339 94.9844 156.766C94.9844 157.187 94.8229 157.549 94.5 157.852C94.1823 158.148 93.7995 158.297 93.3516 158.297ZM103.674 160V162.187H96.7754V160H103.674ZM98.4785 157.125H101.307V168.391C101.307 168.771 101.364 169.063 101.479 169.266C101.598 169.464 101.755 169.599 101.947 169.672C102.14 169.745 102.354 169.781 102.588 169.781C102.765 169.781 102.926 169.768 103.072 169.742C103.223 169.716 103.338 169.693 103.416 169.672L103.893 171.883C103.742 171.935 103.525 171.992 103.244 172.055C102.968 172.117 102.63 172.154 102.229 172.164C101.52 172.185 100.882 172.078 100.314 171.844C99.7467 171.604 99.2962 171.234 98.9629 170.734C98.6348 170.234 98.4733 169.609 98.4785 168.859V157.125ZM109.492 172.242C108.732 172.242 108.047 172.107 107.438 171.836C106.833 171.56 106.354 171.154 106 170.617C105.651 170.081 105.477 169.419 105.477 168.633C105.477 167.956 105.602 167.396 105.852 166.953C106.102 166.51 106.443 166.156 106.875 165.891C107.307 165.625 107.794 165.424 108.336 165.289C108.883 165.148 109.448 165.047 110.031 164.984C110.734 164.911 111.305 164.846 111.742 164.789C112.18 164.727 112.497 164.633 112.695 164.508C112.898 164.378 113 164.177 113 163.906V163.859C113 163.271 112.826 162.815 112.477 162.492C112.128 162.169 111.625 162.008 110.969 162.008C110.276 162.008 109.727 162.159 109.32 162.461C108.919 162.763 108.648 163.12 108.508 163.531L105.867 163.156C106.076 162.427 106.419 161.818 106.898 161.328C107.378 160.833 107.964 160.464 108.656 160.219C109.349 159.969 110.115 159.844 110.953 159.844C111.531 159.844 112.107 159.911 112.68 160.047C113.253 160.182 113.776 160.406 114.25 160.719C114.724 161.026 115.104 161.445 115.391 161.977C115.682 162.508 115.828 163.172 115.828 163.969V172H113.109V170.352H113.016C112.844 170.685 112.602 170.997 112.289 171.289C111.982 171.576 111.594 171.807 111.125 171.984C110.661 172.156 110.117 172.242 109.492 172.242ZM110.227 170.164C110.794 170.164 111.286 170.052 111.703 169.828C112.12 169.599 112.44 169.297 112.664 168.922C112.893 168.547 113.008 168.138 113.008 167.695V166.281C112.919 166.354 112.768 166.422 112.555 166.484C112.346 166.547 112.112 166.602 111.852 166.648C111.591 166.695 111.333 166.737 111.078 166.773C110.823 166.81 110.602 166.841 110.414 166.867C109.992 166.924 109.615 167.018 109.281 167.148C108.948 167.279 108.685 167.461 108.492 167.695C108.299 167.924 108.203 168.221 108.203 168.586C108.203 169.107 108.393 169.5 108.773 169.766C109.154 170.031 109.638 170.164 110.227 170.164ZM118.797 172V156H121.625V161.984H121.742C121.888 161.693 122.094 161.383 122.359 161.055C122.625 160.721 122.984 160.437 123.438 160.203C123.891 159.964 124.469 159.844 125.172 159.844C126.099 159.844 126.935 160.081 127.68 160.555C128.43 161.023 129.023 161.719 129.461 162.641C129.904 163.557 130.125 164.682 130.125 166.016C130.125 167.333 129.909 168.453 129.477 169.375C129.044 170.297 128.456 171 127.711 171.484C126.966 171.969 126.122 172.211 125.18 172.211C124.492 172.211 123.922 172.096 123.469 171.867C123.016 171.638 122.651 171.362 122.375 171.039C122.104 170.711 121.893 170.401 121.742 170.109H121.578V172H118.797ZM121.57 166C121.57 166.776 121.68 167.456 121.898 168.039C122.122 168.622 122.443 169.078 122.859 169.406C123.281 169.729 123.792 169.891 124.391 169.891C125.016 169.891 125.539 169.724 125.961 169.391C126.383 169.052 126.701 168.591 126.914 168.008C127.133 167.419 127.242 166.75 127.242 166C127.242 165.255 127.135 164.594 126.922 164.016C126.708 163.437 126.391 162.984 125.969 162.656C125.547 162.328 125.021 162.164 124.391 162.164C123.786 162.164 123.273 162.323 122.852 162.641C122.43 162.958 122.109 163.404 121.891 163.977C121.677 164.549 121.57 165.224 121.57 166ZM135.982 172.242C135.222 172.242 134.537 172.107 133.928 171.836C133.324 171.56 132.844 171.154 132.49 170.617C132.141 170.081 131.967 169.419 131.967 168.633C131.967 167.956 132.092 167.396 132.342 166.953C132.592 166.51 132.933 166.156 133.365 165.891C133.798 165.625 134.285 165.424 134.826 165.289C135.373 165.148 135.938 165.047 136.521 164.984C137.225 164.911 137.795 164.846 138.232 164.789C138.67 164.727 138.988 164.633 139.186 164.508C139.389 164.378 139.49 164.177 139.49 163.906V163.859C139.49 163.271 139.316 162.815 138.967 162.492C138.618 162.169 138.115 162.008 137.459 162.008C136.766 162.008 136.217 162.159 135.811 162.461C135.41 162.763 135.139 163.12 134.998 163.531L132.357 163.156C132.566 162.427 132.91 161.818 133.389 161.328C133.868 160.833 134.454 160.464 135.146 160.219C135.839 159.969 136.605 159.844 137.443 159.844C138.021 159.844 138.597 159.911 139.17 160.047C139.743 160.182 140.266 160.406 140.74 160.719C141.214 161.026 141.594 161.445 141.881 161.977C142.173 162.508 142.318 163.172 142.318 163.969V172H139.6V170.352H139.506C139.334 170.685 139.092 170.997 138.779 171.289C138.472 171.576 138.084 171.807 137.615 171.984C137.152 172.156 136.607 172.242 135.982 172.242ZM136.717 170.164C137.285 170.164 137.777 170.052 138.193 169.828C138.61 169.599 138.93 169.297 139.154 168.922C139.383 168.547 139.498 168.138 139.498 167.695V166.281C139.41 166.354 139.258 166.422 139.045 166.484C138.837 166.547 138.602 166.602 138.342 166.648C138.081 166.695 137.824 166.737 137.568 166.773C137.313 166.81 137.092 166.841 136.904 166.867C136.482 166.924 136.105 167.018 135.771 167.148C135.438 167.279 135.175 167.461 134.982 167.695C134.79 167.924 134.693 168.221 134.693 168.586C134.693 169.107 134.883 169.5 135.264 169.766C135.644 170.031 136.128 170.164 136.717 170.164Z" fill="white"/>
</svg>
