<?xml version="1.0" encoding="utf-8"?>
<!-- Generator: Adobe Illustrator 22.0.0, SVG Export Plug-In . SVG Version: 6.00 Build 0)  -->
<svg version="1.1" id="Layer_1" xmlns="http://www.w3.org/2000/svg" xmlns:xlink="http://www.w3.org/1999/xlink" x="0px" y="0px"
	 viewBox="0 0 512 367.3" style="enable-background:new 0 0 512 367.3;" xml:space="preserve">
<style type="text/css">
	.st0{fill:#FFFFFF;}
</style>
<g>
	<g>
		<path class="st0" d="M461.9,0H50.1C21.2,0,0,23.8,0,50.1v267.1c0,27.6,22.5,50.1,50.1,50.1h411.8c27.6,0,50.1-22.5,50.1-50.1V50.1
			C512,23.3,490.4,0,461.9,0z M50.1,33.4h411.8c3.8,0,7.6,1.4,10.5,3.8L267.8,241.9c-6.5,6.5-17.1,6.5-23.6,0L39.6,37.2
			C42.5,34.8,46.3,33.4,50.1,33.4z M478.6,317.2c0,9.2-7.5,16.7-16.7,16.7H50.1c-9.2,0-16.7-7.5-16.7-16.7v-239l187.2,187.2
			c19.5,19.5,51.3,19.5,70.8,0L478.6,78.3L478.6,317.2L478.6,317.2z"/>
	</g>
</g>
</svg>
