<?xml version="1.0" encoding="utf-8"?>
<!-- Generator: Adobe Illustrator 22.0.0, SVG Export Plug-In . SVG Version: 6.00 Build 0)  -->
<svg version="1.1" id="Layer_1" xmlns="http://www.w3.org/2000/svg" xmlns:xlink="http://www.w3.org/1999/xlink" x="0px" y="0px"
	 viewBox="0 0 317.7 208" style="enable-background:new 0 0 317.7 208;" xml:space="preserve">
<style type="text/css">
	.st0{fill:url(#SVGID_1_);}
	.st1{fill:#FFFFFF;}
	.st2{fill:url(#SVGID_2_);}
</style>
<g id="BACKGROUND">
</g>
<linearGradient id="SVGID_1_" gradientUnits="userSpaceOnUse" x1="119.3352" y1="-155.8418" x2="169.647" y2="42.5704" gradientTransform="matrix(1 0 0 -1 0 31.3818)">
	<stop  offset="0" style="stop-color:#293445"/>
	<stop  offset="1" style="stop-color:#454F61"/>
</linearGradient>
<path class="st0" d="M22.8,195.6c-7.2,0-13.1-5.9-13.1-13.1V22.2c0-7.2,5.9-13.1,13.1-13.1H259c7.2,0,13.1,5.9,13.1,13.1v160.3
	c0,7.2-5.9,13.1-13.1,13.1H22.8z"/>
<path class="st1" d="M14.6,27.1C14.6,20.5,20,15,26.7,15h228.5c6.6,0,12,5.4,12,12v149.7c0,6.6-5.4,12.1-12.1,12.1H26.7
	c-6.6,0-12.1-5.4-12.1-12.1V27.1z"/>
<linearGradient id="SVGID_2_" gradientUnits="userSpaceOnUse" x1="236.2591" y1="-99.1591" x2="306.9495" y2="-99.1591" gradientTransform="matrix(1 0 0 -1 0 31.3818)">
	<stop  offset="0" style="stop-color:#293445"/>
	<stop  offset="1" style="stop-color:#454F61"/>
</linearGradient>
<path class="st2" d="M306.9,194.2c0,4.2-3.4,7.6-7.6,7.6h-55.4c-4.2,0-7.6-3.4-7.6-7.6V66.9c0-4.2,3.4-7.6,7.6-7.6h55.4
	c4.2,0,7.6,3.4,7.6,7.6V194.2z"/>
<path class="st1" d="M295.4,198.2h-48c-4.5,0-8.1-3.6-8.1-8.1V70.3c0-4.5,3.6-8.1,8.1-8.1h48c4.5,0,8.1,3.6,8.1,8.1v119.8
	C303.5,194.6,299.8,198.2,295.4,198.2z"/>
</svg>
