<?xml version="1.0" encoding="utf-8"?>
<!-- Generator: Adobe Illustrator 22.0.0, SVG Export Plug-In . SVG Version: 6.00 Build 0)  -->
<svg version="1.1" id="Layer_1" xmlns="http://www.w3.org/2000/svg" xmlns:xlink="http://www.w3.org/1999/xlink" x="0px" y="0px"
	 viewBox="0 0 24 24" style="enable-background:new 0 0 24 24;" xml:space="preserve">
<style type="text/css">
	.st0{fill:#777BB3;}
</style>
<path class="st0" d="M12,5.5C5.3,5.5,0,8.4,0,12c0,3.6,5.3,6.5,12,6.5c6.7,0,12-2.9,12-6.5C24,8.4,18.7,5.5,12,5.5z M10.8,7.5h1.3
	l-0.4,2h1.2c0.7,0,1.2,0.1,1.5,0.4c0.3,0.3,0.4,0.7,0.3,1.2l-0.5,2.4h-1.3l0.5-2.2c0.1-0.3,0-0.5-0.1-0.6c-0.1-0.1-0.3-0.2-0.7-0.2
	h-1l-0.6,3H9.5L10.8,7.5z M5,9.5h2.7c1.3,0,2,0.9,1.7,2.1c-0.3,1.5-1.3,1.9-3,1.9H5.6L5.3,15H4L5,9.5z M15.5,9.5h2.7
	c1.3,0,2,0.9,1.7,2.1c-0.3,1.5-1.3,1.9-3,1.9h-0.8L15.8,15h-1.3L15.5,9.5z M6.1,10.5l-0.4,2h0.9c0.7,0,1.4-0.1,1.5-1.2
	c0-0.4-0.1-0.8-1-0.8H6.1z M16.6,10.5l-0.4,2h0.9c0.7,0,1.4-0.1,1.5-1.2c0-0.4-0.1-0.8-1-0.8H16.6z"/>
</svg>
