<?xml version="1.0" encoding="utf-8"?>
<!-- Generator: Adobe Illustrator 22.0.0, SVG Export Plug-In . SVG Version: 6.00 Build 0)  -->
<svg version="1.1" id="Layer_1" xmlns="http://www.w3.org/2000/svg" xmlns:xlink="http://www.w3.org/1999/xlink" x="0px" y="0px"
	 viewBox="0 0 256 256" style="enable-background:new 0 0 256 256;" xml:space="preserve">
<style type="text/css">
	.st0{fill:#8BB7F0;}
</style>
<g>
	<path class="st0" d="M210.5,87.8c-2.7-0.9-5.4-1.8-8.2-2.6c0.5-1.9,0.9-3.8,1.3-5.6c6.2-30.3,2.2-54.7-11.8-62.7
		c-13.4-7.7-35.2,0.3-57.3,19.5c-2.1,1.8-4.2,3.8-6.4,5.8c-1.4-1.4-2.8-2.7-4.2-3.9C100.8,17.8,77.6,9.2,63.7,17.2
		C50.3,25,46.4,47.9,52,76.6c0.5,2.8,1.2,5.6,1.9,8.5c-3.3,0.9-6.4,1.9-9.5,3C17.3,97.5,0,112.3,0,127.7c0,15.9,18.6,31.8,46.8,41.4
		c2.2,0.8,4.5,1.5,6.9,2.2c-0.8,3.1-1.4,6.2-2,9.1c-5.4,28.2-1.2,50.6,12.1,58.3c13.7,7.9,36.8-0.2,59.3-19.9
		c1.8-1.6,3.6-3.2,5.3-4.9c2.3,2.2,4.6,4.3,6.9,6.3c21.8,18.7,43.2,26.3,56.5,18.6c13.7-7.9,18.2-32,12.4-61.3
		c-0.4-2.2-1-4.5-1.5-6.8c1.6-0.5,3.2-1,4.8-1.5c29.3-9.7,48.4-25.4,48.4-41.5C256,112.3,238.1,97.3,210.5,87.8L210.5,87.8z
		 M204.1,158.8c-1.4,0.5-2.8,0.9-4.3,1.3c-3.2-10.3-7.6-21.2-13-32.4c5.1-11,9.3-21.8,12.5-32c2.6,0.8,5.2,1.6,7.6,2.4
		c23.7,8.2,38.1,20.2,38.1,29.5C245.1,137.6,229.5,150.4,204.1,158.8L204.1,158.8z M193.6,179.6c2.6,12.9,2.9,24.6,1.2,33.8
		c-1.5,8.2-4.6,13.7-8.4,15.9c-8.1,4.7-25.3-1.4-43.9-17.4c-2.1-1.8-4.3-3.8-6.4-5.9c7.2-7.9,14.4-17.1,21.5-27.2
		c12.4-1.1,24.1-2.9,34.7-5.3C192.7,175.6,193.2,177.6,193.6,179.6L193.6,179.6z M87.3,228.5c-7.9,2.8-14.2,2.9-18,0.7
		c-8.1-4.7-11.4-22.6-6.9-46.8c0.5-2.8,1.1-5.6,1.9-8.5c10.5,2.3,22.1,4,34.5,5c7.1,10,14.5,19.1,22,27.2c-1.6,1.6-3.3,3.1-4.9,4.5
		C106,219.3,96,225.4,87.3,228.5L87.3,228.5z M50.3,158.7c-12.5-4.3-22.8-9.8-29.9-15.9c-6.3-5.4-9.6-10.8-9.6-15.2
		c0-9.3,13.9-21.2,37.1-29.3c2.8-1,5.8-1.9,8.8-2.8c3.2,10.4,7.4,21.3,12.5,32.3c-5.1,11.2-9.4,22.2-12.6,32.8
		C54.5,160.1,52.4,159.4,50.3,158.7L50.3,158.7z M62.7,74.5c-4.8-24.6-1.6-43.1,6.4-47.8c8.6-5,27.5,2.1,47.5,19.8
		c1.3,1.1,2.6,2.3,3.8,3.5c-7.4,8-14.8,17.1-21.8,27c-12,1.1-23.6,2.9-34.2,5.3C63.8,79.7,63.2,77.1,62.7,74.5L62.7,74.5z
		 M173.2,101.8c-2.5-4.4-5.1-8.6-7.8-12.8c8.2,1,16,2.4,23.3,4.1c-2.2,7.1-5,14.5-8.2,22C178.2,110.7,175.7,106.2,173.2,101.8
		L173.2,101.8z M128.1,57.9c5,5.5,10.1,11.6,15.1,18.2c-5-0.2-10.1-0.4-15.2-0.4c-5.1,0-10.1,0.1-15.1,0.4
		C117.9,69.5,123,63.4,128.1,57.9L128.1,57.9z M82.8,101.8c-2.5,4.4-4.9,8.8-7.2,13.2c-3.2-7.6-5.9-15-8.1-22.2
		c7.3-1.6,15.1-3,23.2-4C88,93.1,85.3,97.4,82.8,101.8L82.8,101.8L82.8,101.8z M90.9,167.2c-8.4-0.9-16.3-2.2-23.6-3.8
		c2.3-7.3,5-14.9,8.3-22.6c2.3,4.4,4.7,8.8,7.3,13.2h0C85.4,158.5,88.1,162.9,90.9,167.2L90.9,167.2z M128.4,198.2
		c-5.2-5.6-10.4-11.8-15.4-18.4c4.9,0.2,9.9,0.3,15,0.3c5.2,0,10.4-0.1,15.5-0.3C138.5,186.5,133.4,192.7,128.4,198.2L128.4,198.2z
		 M180.6,140.4c3.4,7.8,6.3,15.3,8.6,22.5c-7.4,1.7-15.4,3.1-23.9,4.1c2.7-4.2,5.3-8.6,7.9-13C175.8,149.4,178.3,144.9,180.6,140.4
		L180.6,140.4z M163.7,148.5c-4,6.9-8.1,13.6-12.3,19.8c-7.6,0.5-15.4,0.8-23.4,0.8c-8,0-15.7-0.2-23.2-0.7
		c-4.3-6.3-8.5-13-12.5-19.8h0c-4-6.8-7.6-13.8-10.9-20.6c3.3-6.9,6.9-13.8,10.9-20.6l0,0c4-6.9,8.1-13.5,12.4-19.8
		c7.6-0.6,15.4-0.9,23.3-0.9h0c7.9,0,15.7,0.3,23.4,0.9c4.2,6.2,8.4,12.8,12.3,19.7c4,6.9,7.7,13.8,11,20.5
		C171.4,134.6,167.7,141.6,163.7,148.5L163.7,148.5z M186.3,26.4c8.6,4.9,11.9,24.9,6.5,51c-0.3,1.7-0.7,3.4-1.2,5.1
		c-10.6-2.5-22.2-4.3-34.2-5.4c-7-10-14.3-19.1-21.6-27c2-1.9,3.9-3.7,5.9-5.4C160.6,28.2,178.2,21.7,186.3,26.4L186.3,26.4z
		 M128,104.8c12.6,0,22.9,10.2,22.9,22.9c0,12.6-10.2,22.9-22.9,22.9s-22.9-10.2-22.9-22.9C105.1,115,115.4,104.8,128,104.8
		L128,104.8z"/>
</g>
</svg>
